HIERARCHY
ROOT hip
{
  OFFSET 0 0 0
  CHANNELS 6 Xposition Yposition Zposition Zrotation Yrotation Xrotation
  JOINT abdomen
  {
    OFFSET 0 20.6881 -0.73152
    CHANNELS 3 Zrotation Xrotation Yrotation
    JOINT chest
    {
      OFFSET 0 11.7043 -0.48768
      CHANNELS 3 Zrotation Xrotation Yrotation
      JOINT neck
      {
        OFFSET 0 22.1894 -2.19456
        CHANNELS 3 Zrotation Xrotation Yrotation
        JOINT head
        {
          OFFSET -0.24384 7.07133 1.2192
          CHANNELS 3 Zrotation Xrotation Yrotation
          JOINT leftEye
          {
            OFFSET 4.14528 8.04674 8.04672
            CHANNELS 3 Zrotation Xrotation Yrotation
            End Site
            {
              OFFSET 1 0 0
            }
          }
          JOINT rightEye
          {
            OFFSET -3.6576 8.04674 8.04672
            CHANNELS 3 Zrotation Xrotation Yrotation
            End Site
            {
              OFFSET 1 0 0
            }
          }
        }
      }
      JOINT rCollar
      {
        OFFSET -2.68224 19.2634 -4.8768
        CHANNELS 3 Zrotation Xrotation Yrotation
        JOINT rShldr
        {
          OFFSET -8.77824 -1.95073 1.46304
          CHANNELS 3 Zrotation Xrotation Yrotation
          JOINT rForeArm
          {
            OFFSET -28.1742 -1.7115 0.48768
            CHANNELS 3 Zrotation Xrotation Yrotation
            JOINT rHand
            {
              OFFSET -22.5879 0.773209 7.07136
              CHANNELS 3 Zrotation Xrotation Yrotation
              JOINT rThumb1
              {
                OFFSET -1.2192 -0.487915 3.41376
                CHANNELS 3 Zrotation Xrotation Yrotation
                JOINT rThumb2
                {
                  OFFSET -3.37035 -0.52449 3.41376
                  CHANNELS 3 Zrotation Xrotation Yrotation
                  End Site
                  {
                    OFFSET -1.78271 -1.18214 1.43049
                  }
                }
              }
              JOINT rIndex1
              {
                OFFSET -7.75947 0.938293 5.60832
                CHANNELS 3 Zrotation Xrotation Yrotation
                JOINT rIndex2
                {
                  OFFSET -2.54057 -0.884171 1.56538
                  CHANNELS 3 Zrotation Xrotation Yrotation
                  End Site
                  {
                    OFFSET -1.62519 -0.234802 1.16502
                  }
                }
              }
              JOINT rMid1
              {
                OFFSET -8.24714 1.18213 3.41376
                CHANNELS 3 Zrotation Xrotation Yrotation
                JOINT rMid2
                {
                  OFFSET -3.10165 -0.590103 1.0647
                  CHANNELS 3 Zrotation Xrotation Yrotation
                  End Site
                  {
                    OFFSET -2.48547 -0.328903 0.83742
                  }
                }
              }
              JOINT rRing1
              {
                OFFSET -8.82822 0.546677 1.51678
                CHANNELS 3 Zrotation Xrotation Yrotation
                JOINT rRing2
                {
                  OFFSET -2.60934 -0.819778 -0.0198488
                  CHANNELS 3 Zrotation Xrotation Yrotation
                  End Site
                  {
                    OFFSET -2.33842 -0.294052 0.168128
                  }
                }
              }
              JOINT rPinky1
              {
                OFFSET -8.27202 -0.0477905 -0.4584
                CHANNELS 3 Zrotation Xrotation Yrotation
                JOINT rPinky2
                {
                  OFFSET -1.82734 -0.647385 -0.700984
                  CHANNELS 3 Zrotation Xrotation Yrotation
                  End Site
                  {
                    OFFSET -1.69225 -0.51767 -0.607171
                  }
                }
              }
            }
          }
        }
      }
      JOINT lCollar
      {
        OFFSET 2.68224 19.2634 -4.8768
        CHANNELS 3 Zrotation Xrotation Yrotation
        JOINT lShldr
        {
          OFFSET 8.77824 -1.95073 1.46304
          CHANNELS 3 Zrotation Xrotation Yrotation
          JOINT lForeArm
          {
            OFFSET 28.1742 -1.7115 0.48768
            CHANNELS 3 Zrotation Xrotation Yrotation
            JOINT lHand
            {
              OFFSET 22.5879 0.773209 7.07136
              CHANNELS 3 Zrotation Xrotation Yrotation
              JOINT lThumb1
              {
                OFFSET 1.2192 -0.487915 3.41376
                CHANNELS 3 Zrotation Xrotation Yrotation
                JOINT lThumb2
                {
                  OFFSET 3.37035 -0.52449 3.41376
                  CHANNELS 3 Zrotation Xrotation Yrotation
                  End Site
                  {
                    OFFSET 1.78271 -1.18214 1.43049
                  }
                }
              }
              JOINT lIndex1
              {
                OFFSET 7.75947 0.938293 5.60832
                CHANNELS 3 Zrotation Xrotation Yrotation
                JOINT lIndex2
                {
                  OFFSET 2.54057 -0.884171 1.56538
                  CHANNELS 3 Zrotation Xrotation Yrotation
                  End Site
                  {
                    OFFSET 1.62519 -0.234802 1.16502
                  }
                }
              }
              JOINT lMid1
              {
                OFFSET 8.24714 1.18213 3.41376
                CHANNELS 3 Zrotation Xrotation Yrotation
                JOINT lMid2
                {
                  OFFSET 3.10165 -0.590103 1.0647
                  CHANNELS 3 Zrotation Xrotation Yrotation
                  End Site
                  {
                    OFFSET 2.48547 -0.328903 0.83742
                  }
                }
              }
              JOINT lRing1
              {
                OFFSET 8.82822 0.546677 1.51678
                CHANNELS 3 Zrotation Xrotation Yrotation
                JOINT lRing2
                {
                  OFFSET 2.60934 -0.819778 -0.0198488
                  CHANNELS 3 Zrotation Xrotation Yrotation
                  End Site
                  {
                    OFFSET 2.33842 -0.294052 0.168128
                  }
                }
              }
              JOINT lPinky1
              {
                OFFSET 8.27202 -0.0477905 -0.4584
                CHANNELS 3 Zrotation Xrotation Yrotation
                JOINT lPinky2
                {
                  OFFSET 1.82734 -0.647385 -0.700984
                  CHANNELS 3 Zrotation Xrotation Yrotation
                  End Site
                  {
                    OFFSET 1.69225 -0.51767 -0.607171
                  }
                }
              }
            }
          }
        }
      }
    }
  }
  JOINT rButtock
  {
    OFFSET -8.77824 4.35084 1.2192
    CHANNELS 3 Zrotation Xrotation Yrotation
    JOINT rThigh
    {
      OFFSET 0 -1.70687 -2.19456
      CHANNELS 3 Zrotation Xrotation Yrotation
      JOINT rShin
      {
        OFFSET 0 -36.8199 0.73152
        CHANNELS 3 Zrotation Xrotation Yrotation
        JOINT rFoot
        {
          OFFSET 0.73152 -45.1104 -5.12064
          CHANNELS 3 Zrotation Xrotation Yrotation
          End Site
          {
            OFFSET -1.1221 -3.69964 12.103
          }
        }
      }
    }
  }
  JOINT lButtock
  {
    OFFSET 8.77824 4.35084 1.2192
    CHANNELS 3 Zrotation Xrotation Yrotation
    JOINT lThigh
    {
      OFFSET 0 -1.70687 -2.19456
      CHANNELS 3 Zrotation Xrotation Yrotation
      JOINT lShin
      {
        OFFSET 0 -36.8199 0.73152
        CHANNELS 3 Zrotation Xrotation Yrotation
        JOINT lFoot
        {
          OFFSET -0.73152 -45.1104 -5.12064
          CHANNELS 3 Zrotation Xrotation Yrotation
          End Site
          {
            OFFSET 1.1221 -3.69964 12.103
          }
        }
      }
    }
  }
}
MOTION
Frames:	8
Frame Time:	0.00833333
-5.38076 84.2564 32.5807 0.0 0.0 0.0 -1.24153 -0.00398111 -0.0340793 -0.342498 -0.00249241 -0.059328 3.64185e-14 -1.59028e-15 3.72721e-16 1.09481e-13 3.18055e-15 1.09021e-15 -0.0 0.0 0.0 -0.0 0.0 0.0 1.8238e-14 4.73667e-17 3.47873e-16 3.8531e-13 1.19892e-15 5.76476e-15 6.57744e-12 -1.93457e-12 -1.90833e-14 7.52728e-11 2.16126e-12 8.65111e-13 1.77555e-10 4.86379e-13 1.83836e-12 3.06624e-10 8.39666e-13 3.15988e-12 1.7756e-10 4.89805e-13 1.82564e-12 7.73091 5.47488 0.417314 1.77555e-10 4.86029e-13 1.83836e-12 2.90554 0.965183 0.102902 1.77565e-10 4.86824e-13 1.83359e-12 10.2786 0.731801 0.0259123 1.77556e-10 4.8901e-13 1.832e-12 2.22167 -0.733487 -0.20892 1.82402e-14 4.62019e-17 4.96962e-17 3.79836e-13 9.00743e-16 4.17448e-15 6.57694e-12 2.00117e-12 2.8625e-14 7.52642e-11 -1.79699e-12 8.20583e-13 1.77537e-10 4.42672e-13 1.832e-12 3.066e-10 7.69694e-13 3.17976e-12 1.77531e-10 4.45278e-13 1.84154e-12 -7.73091 5.47488 -0.417314 1.77537e-10 4.43091e-13 1.83518e-12 -2.90554 0.965183 -0.102902 1.77525e-10 4.43389e-13 1.83836e-12 -10.2786 0.731801 -0.0259123 1.77538e-10 4.44085e-13 1.83836e-12 -2.22167 -0.733487 0.20892 -2.03217e-16 0.0 -3.88251e-19 -0.453613 -1.92099 -0.0095309 -0.00915726 -2.07857 -0.0755668 -0.487692 3.99699 0.136688 2.03217e-16 0.0 3.88251e-19 -1.43705 -5.97118 0.129651 -0.00126576 5.25801 -0.0454278 0.507586 0.71072 -0.0722461
-7.80217 84.7448 32.9572 -4.9394 -6.3691 -1.9508 -0.22773 1.96105 0.234689 -0.272524 -1.29156 -0.000269591 -0.526588 2.23372 -0.091561 1.32705 -3.14543 0.0191887 -0.0 0.0 0.0 -0.0 0.0 0.0 1.4721e-14 -2.72611e-14 -1.60045e-14 23.2557 7.28211 -3.25795 -6.27605 -3.43016 9.09301 0.0675323 5.76989 0.796129 2.1094e-11 4.05945e-11 6.54909e-11 3.7125e-11 6.78289e-11 1.15727e-10 2.11017e-11 4.05984e-11 6.54772e-11 7.73091 5.47488 0.417314 2.10935e-11 4.05941e-11 6.54881e-11 2.90554 0.965183 0.102902 2.11028e-11 4.05948e-11 6.54864e-11 10.2786 0.731801 0.0259123 2.10947e-11 4.05965e-11 6.5487e-11 2.22167 -0.733487 -0.20892 1.47048e-14 -2.7262e-14 -1.62926e-14 -23.952 6.13311 2.39307 5.34152 -2.702 -8.02273 -0.0290913 3.78502 -0.527765 2.39471e-10 -1.70791e-11 -1.43871e-10 4.12124e-10 -3.18635e-11 -2.50385e-10 2.39467e-10 -1.70776e-11 -1.4386e-10 -7.73091 5.47488 -0.417314 2.39472e-10 -1.7077e-11 -1.43869e-10 -2.90554 0.965183 -0.102902 2.39461e-10 -1.70763e-11 -1.43869e-10 -10.2786 0.731801 -0.0259123 2.39472e-10 -1.70753e-11 -1.43872e-10 -2.22167 -0.733487 0.20892 -2.03217e-16 0.0 -3.88251e-19 -6.4052 -1.94625 -0.00652215 -0.00362622 -2.07936 -0.0266582 -0.443586 4.01244 0.130459 2.03217e-16 0.0 3.88251e-19 0.904102 -3.7163 -1.25626 -0.0208926 5.61438 -0.126947 -0.447581 -2.89821 6.51375
-7.78093 84.7501 32.8819 -4.8882 -6.2596 -2.0278 0.828374 4.03387 0.518797 -0.195283 -2.65648 0.0620485 -1.07601 4.59816 -0.187547 2.72814 -6.46497 0.0414559 -0.0 0.0 0.0 -0.0 0.0 0.0 1.01006e-14 -5.56282e-14 -3.43463e-14 48.7688 14.895 -6.88466 -11.7408 -6.7679 18.8076 -0.0388849 11.8673 1.66526 -1.44159e-10 8.27862e-11 1.35431e-10 -2.47487e-10 1.38277e-10 2.39304e-10 -1.44148e-10 8.27907e-11 1.35416e-10 7.73091 5.47488 0.417314 -1.4416e-10 8.27858e-11 1.35425e-10 2.90554 0.965183 0.102902 -1.44152e-10 8.27864e-11 1.35427e-10 10.2786 0.731801 0.0259123 -1.44159e-10 8.27874e-11 1.35429e-10 2.22167 -0.733487 -0.20892 1.00642e-14 -5.56289e-14 -3.46258e-14 -49.8501 12.5758 5.02413 10.173 -5.38109 -16.5593 0.0166299 7.78872 -1.09389 3.1173e-10 -2.24886e-11 -2.93021e-10 5.3545e-10 -4.37026e-11 -5.10106e-10 3.11728e-10 -2.24884e-11 -2.93009e-10 -7.73091 5.47488 -0.417314 3.11732e-10 -2.24848e-11 -2.93019e-10 -2.90554 0.965183 -0.102902 3.11723e-10 -2.24835e-11 -2.93023e-10 -10.2786 0.731801 -0.0259123 3.11732e-10 -2.24822e-11 -2.93029e-10 -2.22167 -0.733487 0.20892 -2.03217e-16 0.0 -3.88251e-19 -12.6968 -1.97304 -0.00334441 0.00223697 -2.0802 0.0251745 -0.39695 4.02882 0.123873 2.03217e-16 0.0 3.88251e-19 3.49791 -1.32559 -2.71782 -0.0404743 5.98876 -0.21284 -0.555956 -6.57291 13.5545
-7.75377 84.7541 32.8154 -4.8121 -6.1552 -2.0961 1.74432 5.89062 0.77591 -0.124592 -3.86969 0.118117 -1.55822 6.7011 -0.276362 3.98755 -9.43629 0.058268 -0.0 0.0 0.0 -0.0 0.0 0.0 7.68691e-15 -8.18779e-14 -4.87092e-14 72.3961 21.553 -10.4316 -15.6639 -9.25544 27.6193 -0.297667 17.296 2.48889 -2.91828e-10 1.20811e-10 1.92796e-10 -5.01873e-10 2.01807e-10 3.40862e-10 -2.91814e-10 1.20816e-10 1.9278e-10 7.73091 5.47488 0.417314 -2.91829e-10 1.2081e-10 1.92788e-10 2.90554 0.965183 0.102902 -2.91822e-10 1.20811e-10 1.92792e-10 10.2786 0.731801 0.0259123 -2.91828e-10 1.20811e-10 1.92797e-10 2.22167 -0.733487 -0.20892 7.634e-15 -8.18784e-14 -4.89771e-14 -73.4577 18.2675 7.51904 13.8127 -7.47163 -24.2603 0.125438 11.3512 -1.61137 3.63337e-10 -5.21225e-11 -4.35277e-10 6.2317e-10 -9.71298e-11 -7.57515e-10 3.63337e-10 -5.21235e-11 -4.35264e-10 -7.73091 5.47488 -0.417314 3.63341e-10 -5.21173e-11 -4.35276e-10 -2.90554 0.965183 -0.102902 3.63332e-10 -5.21157e-11 -4.35283e-10 -10.2786 0.731801 -0.0259123 3.6334e-10 -5.21141e-11 -4.35292e-10 -2.22167 -0.733487 0.20892 -2.03217e-16 0.0 -3.88251e-19 -18.3084 -1.99679 -0.000504383 0.0074399 -2.08094 0.071159 -0.355364 4.04334 0.117999 2.03217e-16 0.0 3.88251e-19 5.91313 0.788873 -4.01912 -0.0570854 6.32708 -0.290309 0.106306 -9.57367 19.95
-7.7349 84.7559 32.7463 -4.771 -6.0538 -2.1301 2.34861 7.20764 0.96207 -0.0759013 -4.70364 0.158282 -1.88719 8.15035 -0.345692 4.8873 -11.5371 0.0606285 -0.0 0.0 0.0 -0.0 0.0 0.0 1.07897e-14 -1.02834e-13 -5.31252e-14 89.4011 26.1034 -13.1549 -17.9235 -10.6048 33.8491 -0.577102 21.0656 3.10312 -3.95534e-10 1.48417e-10 2.18724e-10 -6.80696e-10 2.48045e-10 3.87373e-10 -3.95519e-10 1.48422e-10 2.18708e-10 7.73091 5.47488 0.417314 -3.95535e-10 1.48417e-10 2.18714e-10 2.90554 0.965183 0.102902 -3.95529e-10 1.48417e-10 2.1872e-10 10.2786 0.731801 0.0259123 -3.95535e-10 1.48418e-10 2.18727e-10 2.22167 -0.733487 -0.20892 1.07295e-14 -1.02834e-13 -5.33737e-14 -90.1788 22.209 9.34911 16.0081 -8.69466 -29.6895 0.239924 13.8142 -1.98037 3.63315e-10 -1.42317e-10 -5.60299e-10 6.21876e-10 -2.54527e-10 -9.74144e-10 3.63316e-10 -1.42319e-10 -5.60287e-10 -7.73091 5.47488 -0.417314 3.63319e-10 -1.42312e-10 -5.60299e-10 -2.90554 0.965183 -0.102902 3.63312e-10 -1.4231e-10 -5.60307e-10 -10.2786 0.731801 -0.0259123 3.63319e-10 -1.42308e-10 -5.60318e-10 -2.22167 -0.733487 0.20892 -2.03217e-16 0.0 -3.88251e-19 -22.22 -2.01299 0.00149119 0.0109893 -2.08144 0.102523 -0.32641 4.05323 0.113906 2.03217e-16 0.0 3.88251e-19 7.64958 2.21999 -4.91953 -0.0683747 6.57527 -0.34649 0.954594 -11.4188 24.4689
-7.72867 84.7551 32.6686 -4.7781 -5.9685 -2.1221 2.51934 7.77971 1.04945 -0.0618779 -5.00579 0.176166 -2.00786 8.6826 -0.387332 5.29304 -12.4317 0.0426311 -0.0 0.0 0.0 -0.0 0.0 0.0 2.2284e-14 -1.2007e-13 -4.21291e-14 96.1897 27.9251 -14.2603 -18.7176 -11.0349 36.313 -0.709195 22.5212 3.35231 -4.42359e-10 1.51914e-10 2.12464e-10 -7.61607e-10 2.53317e-10 3.77405e-10 -4.42344e-10 1.51917e-10 2.12449e-10 7.73091 5.47488 0.417314 -4.4236e-10 1.51912e-10 2.12455e-10 2.90554 0.965183 0.102902 -4.42355e-10 1.51913e-10 2.12462e-10 10.2786 0.731801 0.0259123 -4.42361e-10 1.51914e-10 2.1247e-10 2.22167 -0.733487 -0.20892 2.22308e-14 -1.2007e-13 -4.23392e-14 -96.684 23.8041 10.0044 16.8003 -9.11361 -31.8351 0.292334 14.7447 -2.12281 2.95771e-10 -3.37509e-10 -6.78058e-10 5.0403e-10 -5.92623e-10 -1.17689e-09 2.95771e-10 -3.37513e-10 -6.78045e-10 -7.73091 5.47488 -0.417314 2.95775e-10 -3.37506e-10 -6.78059e-10 -2.90554 0.965183 -0.102902 2.95768e-10 -3.37506e-10 -6.78065e-10 -10.2786 0.731801 -0.0259123 2.95776e-10 -3.37503e-10 -6.78075e-10 -2.22167 -0.733487 0.20892 -2.03217e-16 0.0 -3.88251e-19 -23.7551 -2.01866 0.0023562 0.0122669 -2.08162 0.113811 -0.315645 4.05652 0.112376 2.03217e-16 0.0 3.88251e-19 8.32756 2.71303 -5.24621 -0.0732292 6.67959 -0.373177 1.32021 -12.0039 26.1918
-7.71626 84.7514 32.5956 -4.7624 -5.8824 -2.0911 2.38544 7.81929 1.06537 -0.0731504 -4.92813 0.178064 -1.98164 8.55994 -0.408798 5.34525 -12.4642 0.0100073 -0.0 0.0 0.0 -0.0 0.0 0.0 3.97405e-14 -1.34473e-13 -2.01953e-14 95.4291 27.8628 -14.0644 -18.639 -10.9978 36.056 -0.691683 22.327 3.31887 -4.48332e-10 1.38642e-10 1.8265e-10 -7.72206e-10 2.30126e-10 3.26113e-10 -4.4832e-10 1.38643e-10 1.82637e-10 7.73091 5.47488 0.417314 -4.48332e-10 1.38639e-10 1.82644e-10 2.90554 0.965183 0.102902 -4.48329e-10 1.3864e-10 1.82651e-10 10.2786 0.731801 0.0259123 -4.48336e-10 1.38643e-10 1.82658e-10 2.22167 -0.733487 -0.20892 3.97046e-14 -1.34472e-13 -2.03537e-14 -95.7522 23.7497 9.74825 16.7218 -9.07611 -31.6136 0.283863 14.5811 -2.09782 1.7977e-10 -6.06737e-10 -7.89824e-10 3.02547e-10 -1.05812e-09 -1.36832e-09 1.79769e-10 -6.06742e-10 -7.89813e-10 -7.73091 5.47488 -0.417314 1.79774e-10 -6.06737e-10 -7.89826e-10 -2.90554 0.965183 -0.102902 1.79766e-10 -6.06739e-10 -7.89829e-10 -10.2786 0.731801 -0.0259123 1.79777e-10 -6.06736e-10 -7.89837e-10 -2.22167 -0.733487 0.20892 -2.03217e-16 0.0 -3.88251e-19 -23.5925 -2.01683 0.00241119 0.0119193 -2.08158 0.11074 -0.317849 4.05508 0.112676 2.03217e-16 0.0 3.88251e-19 8.22736 2.53754 -5.16116 -0.0737315 6.68198 -0.378745 1.18388 -11.7937 25.879
-7.69151 84.745 32.5317 -4.7025 -5.7842 -2.0428 2.15357 7.62933 1.04777 -0.0923803 -4.69989 0.173254 -1.89785 8.17835 -0.42103 5.2375 -12.1318 -0.0290323 -0.0 0.0 0.0 -0.0 0.0 0.0 5.85123e-14 -1.41837e-13 3.73575e-15 91.6176 27.0312 -13.339 -18.2062 -10.7681 34.6979 -0.614944 21.4743 3.17289 -4.30499e-10 1.33903e-10 1.24494e-10 -7.42076e-10 2.22359e-10 2.25357e-10 -4.30489e-10 1.33903e-10 1.24484e-10 7.73091 5.47488 0.417314 -4.30499e-10 1.33899e-10 1.24491e-10 2.90554 0.965183 0.102902 -4.30497e-10 1.33901e-10 1.24497e-10 10.2786 0.731801 0.0259123 -4.30504e-10 1.33905e-10 1.24505e-10 2.22167 -0.733487 -0.20892 5.84953e-14 -1.41835e-13 3.62122e-15 -91.8628 23.0181 9.13486 16.2989 -8.85946 -30.4525 0.251272 13.9735 -2.00508 3.67719e-11 -8.73239e-10 -8.72214e-10 5.47025e-11 -1.51834e-09 -1.5085e-09 3.6769e-11 -8.73245e-10 -8.72203e-10 -7.73091 5.47488 -0.417314 3.67751e-11 -8.73242e-10 -8.72217e-10 -2.90554 0.965183 -0.102902 3.67671e-11 -8.73246e-10 -8.72215e-10 -10.2786 0.731801 -0.0259123 3.67807e-11 -8.73243e-10 -8.7222e-10 -2.22167 -0.733487 0.20892 -2.03217e-16 0.0 -3.88251e-19 -22.7455 -2.01187 0.00205932 0.0108507 -2.08142 0.101297 -0.324441 4.05196 0.113591 2.03217e-16 0.0 3.88251e-19 7.82677 2.07594 -4.92156 -0.0723935 6.67194 -0.375188 0.861845 -11.2831 24.7648
